<svg xmlns="http://www.w3.org/2000/svg" xmlns:xlink="http://www.w3.org/1999/xlink" width="131.35" height="29.963" viewBox="0 0 131.35 29.963"><defs><style>.a{fill:url(#a);}.b{fill:url(#b);}.c{fill:#99509e;}</style><linearGradient id="a" y1="0.5" x2="1" y2="0.5" gradientUnits="objectBoundingBox"><stop offset="0" stop-color="#bbd65b"/><stop offset="0.287" stop-color="#b6d058"/><stop offset="0.58" stop-color="#aac451"/><stop offset="0.874" stop-color="#98b147"/><stop offset="1" stop-color="#8ea844"/></linearGradient><linearGradient id="b" x1="-0.001" y1="0.5" x2="1" y2="0.5" xlink:href="#a"/></defs><g transform="translate(-15.77 -9.204)"><g transform="translate(15.77 9.204)"><path class="a" d="M15.77,34.864l8.8,8.414L40.307,27.63,24.91,39.366Z" transform="translate(-15.77 -14.379)"/><path class="b" d="M29.575,11.783C29.41,7.31,21.9,9.115,22.592,13.689s4.113,18.654,4.113,18.654S29.662,14.954,29.575,11.783Z" transform="translate(-17.674 -9.204)"/></g><g transform="translate(47.117 21.311)"><path class="c" d="M59.36,40.207l.245-1.5,1.352-.431,1.294-8.22-1.179-.518.223-1.438,3.84-.086H66.8c1.934,0,3.545.935,3.545,2.869a3.917,3.917,0,0,1-2.747,3.941,4.18,4.18,0,0,1,.712,1.4l.676,2.042,1.179.431-.245,1.5H66.889l-.935-3.286c-.345-1.266-.849-1.5-1.97-1.5l-.453,2.855,1.194.431-.244,1.5H59.36ZM65.243,33.6a2.14,2.14,0,0,0,2.438-2.215c0-.885-.568-1.33-1.467-1.33H64.833L64.264,33.6Z" transform="translate(-59.36 -26.593)"/><path class="c" d="M83.208,40.086a8.024,8.024,0,0,1-4.063,1.33c-2.078,0-3.445-1.179-3.445-3.2,0-3.826,2.373-6.487,5.207-6.487,2.042,0,3.286.971,3.286,2.474,0,1.956-2.165,3.322-5.969,3.358,0,1.5.6,1.87,1.625,1.87a8.944,8.944,0,0,0,2.632-.626Zm-2.51-6.4c-1.036,0-1.92.985-2.265,2.352,2.193-.05,3.25-.741,3.25-1.525C81.683,33.967,81.352,33.686,80.7,33.686Z" transform="translate(-63.949 -27.638)"/><path class="c" d="M88.094,30.707l1.589-.223c.331-2.661,1.179-4.444,4.063-4.444a12.651,12.651,0,0,1,2.891.4l-.518,2.8H94.652V27.946h-.827c-1.007,0-1.381.554-1.525,1.417l-.173,1.122h2.3l-.309,1.733H91.833l-1.266,7.975c-.345,2.193-1.575,3.7-3.826,3.7a10.211,10.211,0,0,1-1.762-.245l.331-1.5H86.5c.9,0,1.417-.568,1.589-1.661l1.294-8.27H87.849Z" transform="translate(-66.556 -26.04)"/><path class="c" d="M98,37.785c0-3.668,2.093-6.055,5.221-6.055a3.393,3.393,0,0,1,3.74,3.653c0,3.668-2.129,6.034-5.257,6.034A3.336,3.336,0,0,1,98,37.785Zm4.926-3.977c-1.453,0-2.337,1.747-2.337,3.84,0,1.093.431,1.7,1.4,1.7,1.87,0,2.373-2.373,2.373-4.063A1.34,1.34,0,0,0,102.926,33.808Z" transform="translate(-70.213 -27.638)"/><path class="c" d="M117.705,33.984c-.827.223-2.057,2.316-2.352,4.135l-.5,3.128h-2.423l1.194-7.608-1.33-.345.209-1.244,3.84-.137-.539,2.6c.072-.173,1.266-2.769,3.337-2.769a3.363,3.363,0,0,1,.971.173l-.676,3.423H117.7V33.984Z" transform="translate(-74.226 -27.641)"/><path class="c" d="M126.512,34.7c.036-.072,1.366-2.956,3.653-2.956,1.316,0,1.87.9,1.87,2.093a3.961,3.961,0,0,1-.05.64c.417-.827,1.611-2.733,3.481-2.733,1.366,0,1.906.863,1.906,2.107a7.324,7.324,0,0,1-.086,1.007l-.741,4.581,1.294.259-.223,1.381-3.826.173.971-5.918a4.118,4.118,0,0,0,.05-.626c0-.5-.158-.849-.654-.849-1.28,0-2.265,2.546-2.661,4.049l-.539,3.337h-2.438l.949-5.918a3.918,3.918,0,0,0,.05-.626c0-.482-.158-.849-.654-.849-1.23,0-2.215,2.459-2.733,4.444l-.482,2.941h-2.438l1.179-7.472-1.33-.345.223-1.381,3.826-.137Z" transform="translate(-77.251 -27.641)"/><path class="c" d="M152.668,40.086a8.024,8.024,0,0,1-4.063,1.33c-2.078,0-3.445-1.179-3.445-3.2,0-3.826,2.373-6.487,5.207-6.487,2.042,0,3.286.971,3.286,2.474,0,1.956-2.165,3.322-5.969,3.358,0,1.5.6,1.87,1.625,1.87a8.944,8.944,0,0,0,2.632-.626Zm-2.51-6.4c-1.036,0-1.92.985-2.265,2.352,2.193-.05,3.25-.741,3.25-1.525C151.143,33.967,150.812,33.686,150.158,33.686Z" transform="translate(-83.458 -27.638)"/><path class="c" d="M163.053,39.065H158.3l.345-2.165H163.4Z" transform="translate(-87.149 -29.09)"/><path class="c" d="M168.549,39.435a3.643,3.643,0,0,0,1.194.194c.921,0,1.467-.345,1.467-1.007,0-1.417-3.668-1.381-3.668-3.941,0-2.021,1.7-2.941,3.855-2.941a10.226,10.226,0,0,1,2.941.482l-.467,2.6h-1.489L172.3,33.7a2.759,2.759,0,0,0-1.007-.158c-.762,0-1.208.345-1.208.913,0,1.417,3.754,1.4,3.754,3.876,0,1.992-1.762,3.1-4.221,3.1A12.068,12.068,0,0,1,166.6,41l.453-2.769h1.489v1.208Z" transform="translate(-89.48 -27.641)"/><path class="c" d="M186.208,40.086a8.024,8.024,0,0,1-4.063,1.33c-2.078,0-3.445-1.179-3.445-3.2,0-3.826,2.373-6.487,5.207-6.487,2.042,0,3.286.971,3.286,2.474,0,1.956-2.165,3.322-5.969,3.358,0,1.5.6,1.87,1.625,1.87a8.944,8.944,0,0,0,2.632-.626Zm-2.51-6.4c-1.036,0-1.92.985-2.265,2.352,2.193-.05,3.25-.741,3.25-1.525C184.683,33.967,184.352,33.686,183.7,33.686Z" transform="translate(-92.878 -27.638)"/><path class="c" d="M193.647,36.887a1.159,1.159,0,0,1,1.244,1.244,1.688,1.688,0,0,1-1.676,1.884,1.165,1.165,0,0,1-1.266-1.23A1.708,1.708,0,0,1,193.647,36.887Zm.4-10.327h2.56l-1.7,8.716-2.006.086Z" transform="translate(-96.6 -26.186)"/></g></g></svg>